# xmcd
#
# Track frame offsets: 
#        150
#        16697
#        28527
#        41992
#        53715
#        68580
#        83537
#        101005
#        117542
#        129882
#
# Disc length: 1864 seconds
#
# Revision: 0
# Processed by: cddbd v1.5.2PL0 Copyright (c) Steve Scherf et al.
# Submitted via: ExactAudioCopy v1.1
#
DISCID=7507460a
DTITLE=Various Artist - Putumayo presents: Acoustic Christmas
DYEAR=2013
DGENRE=Blues
TTITLE0=Mindy Smith - It Really Is (A Wonderful Life)
TTITLE1=The Sugar Thieves - Santa Baby
TTITLE2=Leon Redbone - That Old Christmas Moon
TTITLE3=She and Him - The Christmas Waltz
TTITLE4=Emilie-Claire Barlow - Let It Snow! Let It Snow! Let It Snow!
TTITLE5=Charles Brown - Please Come Home For Christmas
TTITLE6=Stacey Kent - The Christmas Song
TTITLE7=Stephanie Davis - I'll Be Home for Christmas
TTITLE8=Johnny Moore's Three Blazers - Merry Christmas Baby
TTITLE9=Hem - Have Yourself a Merry Little Christmas
EXTD=
EXTT0=
EXTT1=
EXTT2=
EXTT3=
EXTT4=
EXTT5=
EXTT6=
EXTT7=
EXTT8=
EXTT9=
PLAYORDER=
